<svg width="27" height="30" viewBox="0 0 27 30" fill="none" xmlns="http://www.w3.org/2000/svg">
<g id="Group">
<g id="Group_2">
<g id="Group_3">
<path id="Vector" d="M18.7686 13.0261C18.7686 12.4205 18.2781 11.9297 17.6729 11.9297H6.38676C5.78158 11.9297 5.29102 12.4205 5.29102 13.0261C5.29102 13.6316 5.78158 14.1225 6.38676 14.1225H17.6729C18.2781 14.1225 18.7686 13.6316 18.7686 13.0261Z" fill="black"/>
<path id="Vector_2" d="M6.38676 16.3164C5.78158 16.3164 5.29102 16.8073 5.29102 17.4128C5.29102 18.0183 5.78158 18.5092 6.38676 18.5092H13.2412C13.8464 18.5092 14.337 18.0183 14.337 17.4128C14.337 16.8073 13.8464 16.3164 13.2412 16.3164H6.38676Z" fill="black"/>
<path id="Vector_3" d="M8.96144 26.8418H5.29678C4.0884 26.8418 3.1053 25.8581 3.1053 24.649V5.35239C3.1053 4.14328 4.0884 3.15959 5.29678 3.15959H18.7683C19.9767 3.15959 20.9598 4.14328 20.9598 5.35239V12.0952C20.9598 12.7008 21.4504 13.1916 22.0555 13.1916C22.6607 13.1916 23.1513 12.7008 23.1513 12.0952V5.35239C23.1513 2.93417 21.1851 0.966797 18.7683 0.966797H5.29678C2.88002 0.966797 0.913818 2.93417 0.913818 5.35239V24.649C0.913818 27.0672 2.88002 29.0346 5.29678 29.0346H8.96144C9.56662 29.0346 10.0572 28.5437 10.0572 27.9382C10.0572 27.3327 9.56662 26.8418 8.96144 26.8418Z" fill="black"/>
<path id="Vector_4" d="M25.0923 16.8428C23.8106 15.5604 21.7252 15.5603 20.4444 16.842L14.4286 22.848C14.3008 22.9756 14.2066 23.1327 14.1541 23.3055L12.844 27.6212C12.7278 28.0038 12.829 28.4193 13.1081 28.7055C13.3172 28.9199 13.6012 29.0363 13.8925 29.0363C13.9899 29.0363 14.0883 29.0233 14.1849 28.9965L18.6076 27.7706C18.7896 27.7202 18.9555 27.6236 19.0892 27.49L25.0924 21.4945C26.3741 20.2121 26.3741 18.1254 25.0923 16.8428ZM17.7449 25.7344L15.5199 26.3511L16.1711 24.2061L20.2302 20.1535L21.7801 21.7044L17.7449 25.7344ZM23.5436 19.9433L23.3313 20.1553L21.7816 18.6047L21.9932 18.3935C22.4204 17.966 23.1156 17.966 23.5428 18.3935C23.97 18.821 23.97 19.5165 23.5436 19.9433Z" fill="black"/>
<path id="Vector_5" d="M17.6729 7.54492H6.38676C5.78158 7.54492 5.29102 8.03578 5.29102 8.64132C5.29102 9.24686 5.78158 9.73772 6.38676 9.73772H17.6729C18.2781 9.73772 18.7686 9.24686 18.7686 8.64132C18.7686 8.03578 18.2781 7.54492 17.6729 7.54492Z" fill="black"/>
</g>
</g>
</g>
</svg>
