<svg width="32" height="32" viewBox="0 0 32 32" fill="none" xmlns="http://www.w3.org/2000/svg">
<g id="Layer_4">
<g id="Group">
<path id="Vector" d="M9.81674 20.7659C10.4152 20.7659 10.9995 20.7065 11.5658 20.5963V28.0856C11.5658 30.0356 13.0938 31.6229 14.9717 31.6229H28.361C30.2393 31.6229 31.767 30.0364 31.767 28.0856V3.92984C31.767 2.02077 30.2707 0.525391 28.361 0.525391H14.9717C13.5069 0.525391 12.256 1.44177 11.7596 2.72696C11.1333 2.59095 10.4837 2.51712 9.81674 2.51712C4.78074 2.51747 0.697998 6.60266 0.697998 11.6417C0.697998 16.6807 4.78074 20.7659 9.81674 20.7659ZM14.9717 2.74674H28.361C29.0371 2.74674 29.5473 3.25545 29.5473 3.93019V28.086C29.5473 28.7992 29.004 29.4019 28.361 29.4019H14.9717C14.3288 29.4019 13.7855 28.7992 13.7855 28.086C13.7855 28.086 13.7773 19.935 13.7646 19.8686C16.4549 18.5735 18.4105 15.9954 18.8433 12.9276C18.9302 12.9491 25.9952 12.9643 25.9952 12.9643C26.6081 12.9643 27.1052 12.4673 27.1052 11.8536C27.1052 11.2404 26.6085 10.743 25.9952 10.743C25.9952 10.743 18.9641 10.7507 18.8928 10.7652C18.7946 9.73545 18.5242 8.75654 18.1129 7.85535H25.9952C26.6081 7.85535 27.1052 7.3583 27.1052 6.74468C27.1052 6.13105 26.6085 5.634 25.9952 5.634H17.3376C17.142 5.634 16.9612 5.68911 16.8013 5.77778C15.9931 4.81513 14.9901 4.02204 13.8529 3.45928C14.0407 3.03642 14.4647 2.74674 14.9717 2.74674ZM9.81674 4.73882C13.6209 4.73882 16.7155 7.83557 16.7155 11.6417C16.7155 15.4478 13.6206 18.5445 9.81674 18.5445C6.01291 18.5445 2.91802 15.4478 2.91802 11.6417C2.91802 7.83557 6.01291 4.73882 9.81674 4.73882Z" fill="black"/>
<path id="Vector_2" d="M9.81096 13.1884H13.1202C13.7331 13.1884 14.2302 12.6913 14.2302 12.0777C14.2302 11.4641 13.7334 10.967 13.1202 10.967H10.4563V8.07943C10.4563 7.46615 9.9596 6.96875 9.34634 6.96875C8.73343 6.96875 8.23633 7.4658 8.23633 8.07943V11.7064C8.23633 12.5235 8.94244 13.1884 9.81096 13.1884Z" fill="black"/>
<path id="Vector_3" d="M21.9346 20.2419H21.3609C21.052 20.2419 20.8006 19.9903 20.8006 19.6816C20.8006 19.3725 21.052 19.1209 21.3609 19.1209H23.2706C23.8835 19.1209 24.3806 18.6239 24.3806 18.0103C24.3806 17.397 23.8838 16.8996 23.2706 16.8996H22.7576V15.8529C22.7576 15.2396 22.2608 14.7422 21.6476 14.7422C21.0347 14.7422 20.5376 15.2392 20.5376 15.8529V17.0243C19.4053 17.3765 18.5806 18.4345 18.5806 19.6816C18.5806 21.2155 19.8279 22.4636 21.3609 22.4636H21.9346C22.2435 22.4636 22.4949 22.7151 22.4949 23.0242C22.4949 23.3333 22.2435 23.5848 21.9346 23.5848H20.0249C19.412 23.5848 18.9149 24.0819 18.9149 24.6955C18.9149 25.3091 19.4117 25.8062 20.0249 25.8062H20.5379V26.9589C20.5379 27.5722 21.0347 28.0696 21.6479 28.0696C22.2612 28.0696 22.7579 27.5725 22.7579 26.9589V25.6811C23.8902 25.3289 24.7149 24.2709 24.7149 23.0239C24.7153 21.4896 23.4679 20.2419 21.9346 20.2419Z" fill="black"/>
</g>
</g>
</svg>
