<svg width="26" height="29" viewBox="0 0 26 29" fill="none" xmlns="http://www.w3.org/2000/svg">
<g id="Icon">
<path id="Vector" fill-rule="evenodd" clip-rule="evenodd" d="M25.6511 9.60402C25.6511 8.54247 25.2291 7.52462 24.4796 6.77324C23.0782 5.37241 20.3073 2.59988 18.9073 1.1976C18.1564 0.447677 17.1392 0.0253906 16.0783 0.0253906C14.1791 0.0253906 10.3735 0.0253906 7.09621 0.0253906C5.26255 0.0253906 3.50456 0.753471 2.2079 2.05091C0.911238 3.34835 0.183594 5.10739 0.183594 6.94215V21.5038C0.183594 25.3233 3.27899 28.4205 7.09621 28.4205H18.7385C22.5557 28.4205 25.6511 25.3233 25.6511 21.5038C25.6511 17.2969 25.6511 11.9572 25.6511 9.60402ZM16.1918 2.21254C16.1539 2.21109 16.1161 2.20963 16.0783 2.20963C14.1791 2.20963 10.3735 2.20963 7.09621 2.20963C5.84175 2.20963 4.63823 2.70764 3.75196 3.5959C2.86423 4.4827 2.36653 5.68694 2.36653 6.94215V21.5038C2.36653 24.1176 4.48397 26.2363 7.09621 26.2363H18.7385C21.3508 26.2363 23.4682 24.1176 23.4682 21.5038C23.4682 17.2969 23.4682 11.9572 23.4682 9.60402C23.4682 9.56616 23.4667 9.5283 23.4653 9.49043H20.1938C19.1329 9.49043 18.1142 9.06815 17.3633 8.31823C16.6138 7.56685 16.1918 6.54753 16.1918 5.48599V2.21254ZM21.9241 7.30619L18.3747 3.75462V5.48599C18.3747 5.96944 18.5668 6.43104 18.9073 6.77324C19.2493 7.11398 19.7107 7.30619 20.1938 7.30619H21.9241Z" fill="black"/>
<path id="Vector_2" fill-rule="evenodd" clip-rule="evenodd" d="M12.9172 10.2188H12.9434C13.0438 10.2217 13.1413 10.2377 13.233 10.2653L13.2359 10.2668C13.4018 10.3163 13.5575 10.4081 13.6885 10.5391L16.5991 13.4514C17.0255 13.8766 17.0255 14.5698 16.5991 14.995C16.1741 15.4216 15.4814 15.4216 15.0565 14.995L14.0087 13.948V18.5917C14.0087 19.1945 13.5197 19.6838 12.9172 19.6838C12.3147 19.6838 11.8257 19.1945 11.8257 18.5917V13.948L10.7779 14.995C10.353 15.4216 9.66027 15.4216 9.23533 14.995C8.80893 14.5698 8.80893 13.8766 9.23533 13.4514L12.1459 10.5391C12.2769 10.4081 12.4326 10.3163 12.5985 10.2668L12.6014 10.2653C12.6931 10.2377 12.7906 10.2217 12.891 10.2188H12.9172Z" fill="black"/>
</g>
</svg>
