<svg width="15" height="21" viewBox="0 0 15 21" fill="none" xmlns="http://www.w3.org/2000/svg">
<g id="Group">
<g id="Group_2">
<path id="Vector" d="M7.84002 0.615234C3.89206 0.615234 0.680176 3.82712 0.680176 7.77504C0.680176 12.6745 7.08754 19.8673 7.36034 20.1711C7.61657 20.4565 8.06394 20.456 8.31971 20.1711C8.59251 19.8673 14.9999 12.6745 14.9999 7.77504C14.9998 3.82712 11.7879 0.615234 7.84002 0.615234ZM7.84002 11.3773C5.85371 11.3773 4.23776 9.76136 4.23776 7.77504C4.23776 5.78873 5.85374 4.17278 7.84002 4.17278C9.8263 4.17278 11.4422 5.78876 11.4422 7.77508C11.4422 9.7614 9.8263 11.3773 7.84002 11.3773Z" fill="#2F4CDD"/>
</g>
</g>
</svg>
