<svg width="23" height="17" viewBox="0 0 23 17" fill="none" xmlns="http://www.w3.org/2000/svg">
<g id="Group 4789">
<g id="Group">
<g id="Group_2">
<path id="Vector" d="M15.0279 9.83789L13.1309 11.7412C12.3617 12.5132 11.0082 12.5298 10.2223 11.7412L8.32531 9.83789L1.51208 16.6732C1.7657 16.7905 2.04532 16.8605 2.34259 16.8605H21.0107C21.3079 16.8605 21.5875 16.7906 21.841 16.6733L15.0279 9.83789Z" fill="#2F4CDD"/>
</g>
</g>
<g id="Group_3">
<g id="Group_4">
<path id="Vector_2" d="M21.0096 0.935547H2.34153C2.04425 0.935547 1.76463 1.00553 1.51111 1.1228L8.79152 8.42737C8.79201 8.42786 8.79259 8.42795 8.79307 8.42843C8.79356 8.42892 8.79365 8.42958 8.79365 8.42958L11.1609 10.8047C11.4124 11.0561 11.9389 11.0561 12.1903 10.8047L14.5571 8.42998C14.5571 8.42998 14.5577 8.42892 14.5581 8.42843C14.5581 8.42843 14.5592 8.42786 14.5597 8.42737L21.8399 1.12276C21.5864 1.00544 21.3069 0.935547 21.0096 0.935547Z" fill="#2F4CDD"/>
</g>
</g>
<g id="Group_5">
<g id="Group_6">
<path id="Vector_3" d="M0.563159 2.04688C0.431952 2.31221 0.35144 2.60674 0.35144 2.92224V14.8663C0.35144 15.1818 0.431864 15.4763 0.563115 15.7416L7.38815 8.89448L0.563159 2.04688Z" fill="#2F4CDD"/>
</g>
</g>
<g id="Group_7">
<g id="Group_8">
<path id="Vector_4" d="M22.7882 2.04688L15.9633 8.89456L22.7882 15.7418C22.9194 15.4765 22.9999 15.1819 22.9999 14.8664V2.92233C22.9999 2.60674 22.9194 2.31221 22.7882 2.04688Z" fill="#2F4CDD"/>
</g>
</g>
</g>
</svg>
