<svg width="42" height="42" viewBox="0 0 42 42" fill="none" xmlns="http://www.w3.org/2000/svg">
<g id="Group 124">
<path id="Vector" d="M18.5035 14.6927H41.0324C38.3566 6.17573 30.4011 0 21.0001 0C20.152 0 19.3158 0.0477813 18.5035 0.143344V14.6927Z" fill="#3696C6"/>
<path id="Vector_2" d="M42 20.7489C42 20.7489 42 20.6414 42 20.5817C41.988 19.8889 41.9402 19.208 41.8566 18.5391H18.5035V41.8444C19.1844 41.928 19.8892 41.9758 20.582 41.9877C20.6418 41.9877 20.6895 41.9877 20.7493 41.9877C20.8329 41.9877 20.9165 41.9877 21.0001 41.9877H42V20.9998C42 20.9162 42 20.8326 42 20.7489Z" fill="#1576A4"/>
<path id="Vector_3" d="M14.6564 14.6937V0.980469C8.14617 3.03506 3.00969 8.18349 0.967041 14.6937H14.6564Z" fill="#1576A4"/>
<path id="Vector_4" d="M14.6569 18.5391H0.143344C0.0477813 19.3513 0 20.1636 0 20.9998C0 30.3888 6.16378 38.3324 14.6569 41.0201V18.5391Z" fill="#3696C6"/>
</g>
</svg>
