<svg width="25" height="29" viewBox="0 0 25 29" fill="none" xmlns="http://www.w3.org/2000/svg">
<g id="Group 180">
<g id="Group">
<path id="Vector" d="M13.896 5.05069C13.5625 5.05069 13.2919 4.78003 13.2919 4.44654V2.4166C13.2919 1.75083 12.7494 1.2083 12.0836 1.2083C11.4178 1.2083 10.8753 1.75083 10.8753 2.4166V4.44654C10.8753 4.78003 10.6046 5.05069 10.2711 5.05069C9.93765 5.05069 9.66699 4.78124 9.66699 4.44654V2.4166C9.66699 1.08384 10.7508 0 12.0836 0C13.4163 0 14.5002 1.08384 14.5002 2.4166V4.44654C14.5002 4.78124 14.2295 5.05069 13.896 5.05069Z" fill="black"/>
</g>
<g id="Group_2">
<path id="Vector_2" d="M12.0835 28.9992C9.75152 28.9992 7.85449 27.1022 7.85449 24.7702C7.85449 24.4367 8.12515 24.166 8.45864 24.166C8.79213 24.166 9.06279 24.4367 9.06279 24.7702C9.06279 26.4352 10.4185 27.7909 12.0835 27.7909C13.7486 27.7909 15.1043 26.4352 15.1043 24.7702C15.1043 24.4367 15.3749 24.166 15.7084 24.166C16.0419 24.166 16.3126 24.4367 16.3126 24.7702C16.3126 27.1022 14.4156 28.9992 12.0835 28.9992Z" fill="black"/>
</g>
<g id="Group_3">
<path id="Vector_3" d="M22.3535 25.3744H1.81245C0.813185 25.3744 0 24.5612 0 23.5619C0 23.0315 0.230785 22.5301 0.634357 22.1845C2.53864 20.575 3.6249 18.2333 3.6249 15.7539V12.0831C3.6249 7.41906 7.41896 3.625 12.083 3.625C16.747 3.625 20.5411 7.41906 20.5411 12.0831V15.7539C20.5411 18.2345 21.6273 20.575 23.522 22.176C23.9352 22.5301 24.166 23.0315 24.166 23.5619C24.166 24.5612 23.354 25.3744 22.3535 25.3744ZM12.083 4.8333C8.08473 4.8333 4.8332 8.08483 4.8332 12.0831V15.7539C4.8332 18.591 3.59106 21.2674 1.42458 23.0992C1.28563 23.2176 1.2083 23.3855 1.2083 23.5619C1.2083 23.8954 1.47896 24.1661 1.81245 24.1661H22.3535C22.687 24.1661 22.9577 23.8954 22.9577 23.5619C22.9577 23.3855 22.8804 23.2176 22.7462 23.1028C20.5761 21.2674 19.3328 18.5898 19.3328 15.7539V12.0831C19.3328 8.08483 16.0813 4.8333 12.083 4.8333Z" fill="black"/>
</g>
</g>
</svg>
